<?xml version="1.0" encoding="utf-8"?>
<!-- Generator: Adobe Illustrator 19.0.0, SVG Export Plug-In . SVG Version: 6.00 Build 0)  -->
<svg version="1.1" id="Layer_1" xmlns="http://www.w3.org/2000/svg" xmlns:xlink="http://www.w3.org/1999/xlink" x="0px" y="0px"
	 viewBox="0 0 241.6 40.9" style="enable-background:new 0 0 241.6 40.9;" xml:space="preserve">
<style type="text/css">
	.st0{fill:#F1F2F2;}
	.st1{fill:none;}
	.st2{fill:url(#XMLID_48_);}
	.st3{fill:url(#XMLID_49_);}
	.st4{fill:url(#XMLID_50_);}
</style>
<g id="XMLID_1_">
	<g id="XMLID_2_">
		<path id="XMLID_7_" class="st0" d="M42.5,30.9V10.1h7.1c2.4,0,4.1,0.5,5.4,1.4s1.8,2.3,1.8,4.2c0,1-0.3,1.8-0.8,2.6
			c-0.5,0.8-1.3,1.4-2.3,1.8c1.1,0.3,2,0.9,2.6,1.7s0.9,1.9,0.9,3c0,2-0.6,3.5-1.9,4.5s-3,1.6-5.4,1.6H42.5z M46.1,18.9h3.5
			c1.1,0,2-0.3,2.6-0.8c0.6-0.5,1-1.2,1-2.2c0-1-0.3-1.8-0.9-2.2c-0.6-0.5-1.5-0.7-2.7-0.7h-3.5V18.9z M46.1,21.5V28h4
			c1.1,0,2-0.3,2.7-0.8c0.6-0.6,1-1.3,1-2.3c0-2.2-1.1-3.3-3.3-3.3H46.1z"/>
		<path id="XMLID_13_" class="st0" d="M70.2,22.9h-4v8h-3.6V10.1h7.3c2.4,0,4.3,0.5,5.6,1.6c1.3,1.1,2,2.6,2,4.7
			c0,1.4-0.3,2.6-1,3.5c-0.7,0.9-1.6,1.7-2.8,2.2l4.7,8.7v0.2h-3.9L70.2,22.9z M66.2,20h3.7c1.2,0,2.2-0.3,2.9-0.9s1-1.5,1-2.5
			c0-1.1-0.3-2-0.9-2.6C72.2,13.4,71.2,13,70,13h-3.8V20z"/>
		<path id="XMLID_22_" class="st0" d="M94.4,26.1h-8.1l-1.7,4.8h-3.8l7.9-20.8H92l7.9,20.8h-3.8L94.4,26.1z M87.3,23.2h6l-3-8.6
			L87.3,23.2z"/>
		<path id="XMLID_25_" class="st0" d="M120.3,30.9h-3.6l-9.3-14.8v14.8h-3.6V10.1h3.6l9.3,14.8V10.1h3.6V30.9z"/>
		<path id="XMLID_27_" class="st0" d="M126.2,30.9V10.1h6.1c1.8,0,3.5,0.4,4.9,1.2c1.4,0.8,2.5,2,3.3,3.5c0.8,1.5,1.2,3.2,1.2,5.2v1
			c0,2-0.4,3.7-1.2,5.2c-0.8,1.5-1.9,2.6-3.4,3.5s-3.1,1.2-5,1.2H126.2z M129.9,13v15h2.4c1.9,0,3.3-0.6,4.4-1.8
			c1-1.2,1.5-2.9,1.5-5.1V20c0-2.3-0.5-4-1.5-5.2c-1-1.2-2.4-1.8-4.3-1.8H129.9z"/>
		<path id="XMLID_30_" class="st0" d="M159,22.1h-8.4v8.8H147V10.1h13.2V13h-9.6v6.2h8.4V22.1z"/>
		<path id="XMLID_32_" class="st0" d="M180.8,21.1c0,2-0.4,3.8-1.1,5.4c-0.7,1.5-1.7,2.7-3,3.5c-1.3,0.8-2.8,1.2-4.5,1.2
			c-1.7,0-3.2-0.4-4.5-1.2c-1.3-0.8-2.3-2-3.1-3.5c-0.7-1.5-1.1-3.3-1.1-5.3V20c0-2,0.4-3.8,1.1-5.4c0.7-1.6,1.7-2.7,3-3.6
			s2.8-1.2,4.5-1.2c1.7,0,3.2,0.4,4.5,1.2c1.3,0.8,2.3,2,3,3.5c0.7,1.5,1.1,3.3,1.1,5.3V21.1z M177.2,20c0-2.3-0.4-4.1-1.3-5.3
			c-0.9-1.2-2.1-1.8-3.7-1.8c-1.6,0-2.8,0.6-3.7,1.8s-1.3,3-1.3,5.2v1.2c0,2.3,0.4,4.1,1.3,5.3c0.9,1.2,2.1,1.9,3.7,1.9
			c1.6,0,2.8-0.6,3.7-1.8c0.9-1.2,1.3-3,1.3-5.3V20z"/>
		<path id="XMLID_35_" class="st0" d="M193.7,22.9h-4v8h-3.6V10.1h7.3c2.4,0,4.3,0.5,5.6,1.6c1.3,1.1,2,2.6,2,4.7
			c0,1.4-0.3,2.6-1,3.5c-0.7,0.9-1.6,1.7-2.8,2.2l4.7,8.7v0.2h-3.9L193.7,22.9z M189.7,20h3.7c1.2,0,2.2-0.3,2.9-0.9s1-1.5,1-2.5
			c0-1.1-0.3-2-1-2.6c-0.6-0.6-1.6-0.9-2.8-0.9h-3.8V20z"/>
		<path id="XMLID_38_" class="st0" d="M221.6,28.2c-0.8,1-1.8,1.7-3.1,2.2c-1.3,0.5-2.8,0.8-4.5,0.8c-1.7,0-3.3-0.4-4.6-1.2
			c-1.3-0.8-2.4-1.9-3.1-3.4s-1.1-3.2-1.1-5.2v-1.6c0-3.1,0.8-5.6,2.3-7.4c1.5-1.8,3.6-2.6,6.3-2.6c2.3,0,4.2,0.6,5.5,1.7
			c1.4,1.1,2.2,2.8,2.5,4.9H218c-0.4-2.5-1.9-3.8-4.4-3.8c-1.6,0-2.8,0.6-3.7,1.7c-0.8,1.2-1.3,2.9-1.3,5.1v1.6c0,2.2,0.5,4,1.4,5.2
			c0.9,1.2,2.3,1.9,3.9,1.9c1.8,0,3.2-0.4,3.9-1.3V23h-4.3v-2.7h7.9V28.2z"/>
		<path id="XMLID_40_" class="st0" d="M239.4,21.6h-8.5V28h10v2.9h-13.6V10.1h13.5V13h-9.9v5.7h8.5V21.6z"/>
	</g>
	<g id="XMLID_3_">
		<path id="XMLID_11_" class="st1" d="M2,11.4v18.2l15.7,9.1l15.7-9.1V11.4L17.7,2.3L2,11.4z M21.3,19c5.2,7.2-3.1,8.1-3.1,8.1
			C23.6,24.6,21.3,19,21.3,19z M18.3,22.4c-2.9,2.8-1,6-1,6c-2.8-1.1-2.9-3.1,0.5-7.5c3.4-4.4,0.4-5.9,0.4-5.9
			c1.6,2.4-1.7,4.7-3.6,6.1c-1.9,1.3-1.7,3.5-1.7,3.5c-1.9-3.3,3.6-5.6,4.4-7.9c0.8-2.3-0.2-3.9-0.2-3.9l0,0
			C21.5,14.9,21.1,19.6,18.3,22.4z"/>
		
			<linearGradient id="XMLID_48_" gradientUnits="userSpaceOnUse" x1="1.2373" y1="143.4195" x2="2.3294" y2="143.4195" gradientTransform="matrix(32.473 0 0 -32.473 -40.1795 4677.7368)">
			<stop  offset="0" style="stop-color:#FCEF42"/>
			<stop  offset="5.887456e-002" style="stop-color:#FCDE30"/>
			<stop  offset="0.1299" style="stop-color:#FCD11F"/>
			<stop  offset="0.203" style="stop-color:#FDC915"/>
			<stop  offset="0.2809" style="stop-color:#FDC712"/>
			<stop  offset="0.6685" style="stop-color:#F29040"/>
			<stop  offset="0.8876" style="stop-color:#ED693C"/>
			<stop  offset="1" style="stop-color:#E83F39"/>
		</linearGradient>
		<path id="XMLID_19_" class="st2" d="M17.7,0L0,10.2v20.5l17.7,10.2l17.7-10.2V10.2L17.7,0z M33.5,29.6l-15.7,9.1L2,29.6V11.4
			l15.7-9.1l15.7,9.1V29.6z"/>
		
			<linearGradient id="XMLID_49_" gradientUnits="userSpaceOnUse" x1="-3.8187" y1="143.8319" x2="-2.7266" y2="143.8319" gradientTransform="matrix(4.4442 0 0 -4.4442 35.0771 662.2438)">
			<stop  offset="0" style="stop-color:#F89933"/>
			<stop  offset="0.2107" style="stop-color:#F18845"/>
			<stop  offset="0.6532" style="stop-color:#E45A60"/>
			<stop  offset="1" style="stop-color:#DB1869"/>
		</linearGradient>
		<path id="XMLID_20_" class="st3" d="M18.1,27.1c0,0,8.3-0.9,3.1-8.1C21.3,19,23.6,24.6,18.1,27.1z"/>
		
			<linearGradient id="XMLID_50_" gradientUnits="userSpaceOnUse" x1="-1.6698" y1="143.6703" x2="-0.5778" y2="143.6703" gradientTransform="matrix(7.3201 0 0 -7.3201 24.6295 1072.1798)">
			<stop  offset="0" style="stop-color:#F89933"/>
			<stop  offset="0.2107" style="stop-color:#F18845"/>
			<stop  offset="0.6532" style="stop-color:#E45A60"/>
			<stop  offset="1" style="stop-color:#DB1869"/>
		</linearGradient>
		<path id="XMLID_21_" class="st4" d="M16.9,12.7c0,0,1.1,1.6,0.3,3.9c-0.8,2.3-6.3,4.6-4.4,7.9c0,0-0.2-2.2,1.7-3.5
			c1.9-1.3,5.2-3.6,3.6-6.1c0,0,3,1.5-0.4,5.9c-3.4,4.4-3.2,6.4-0.5,7.5c0,0-1.9-3.2,1-6C21.1,19.6,21.5,14.9,16.9,12.7L16.9,12.7z"
			/>
	</g>
</g>
<g id="XMLID_4_">
</g>
<g id="XMLID_6_">
</g>
<g id="XMLID_42_">
</g>
<g id="XMLID_43_">
</g>
<g id="XMLID_44_">
</g>
<g id="XMLID_45_">
</g>
<g id="XMLID_46_">
</g>
</svg>
