<?xml version="1.0" standalone="no"?>
<!DOCTYPE svg PUBLIC "-//W3C//DTD SVG 20010904//EN"
 "http://www.w3.org/TR/2001/REC-SVG-20010904/DTD/svg10.dtd">
<svg version="1.0" xmlns="http://www.w3.org/2000/svg"
 width="1455.000000pt" height="1455.000000pt" viewBox="0 0 1455.000000 1455.000000"
 preserveAspectRatio="xMidYMid meet">
<metadata>
Created by potrace 1.14, written by Peter Selinger 2001-2017
</metadata>
<g transform="translate(0.000000,1455.000000) scale(0.100000,-0.100000)"
fill="#000000" stroke="none">
<path d="M7204 14509 c-38 -23 -87 -51 -109 -64 -22 -12 -96 -55 -165 -95 -69
-40 -145 -84 -170 -98 -73 -41 -612 -353 -645 -373 -16 -11 -37 -22 -45 -26
-8 -3 -46 -25 -85 -48 -65 -39 -109 -64 -195 -112 -19 -11 -165 -96 -325 -188
-159 -92 -306 -177 -325 -187 -19 -11 -75 -44 -125 -73 -49 -29 -107 -62 -127
-74 -84 -47 -110 -62 -283 -163 -99 -57 -200 -116 -225 -130 -25 -14 -96 -55
-159 -92 -62 -36 -115 -66 -117 -66 -2 0 -28 -16 -58 -35 -30 -19 -57 -35 -59
-35 -3 0 -83 -46 -178 -101 -96 -56 -277 -161 -404 -234 -389 -223 -459 -264
-475 -275 -8 -6 -22 -13 -30 -17 -8 -4 -62 -34 -120 -68 -105 -62 -447 -259
-485 -279 -11 -6 -27 -16 -35 -22 -8 -6 -37 -24 -65 -39 -60 -33 -475 -272
-905 -521 l-315 -183 0 -3635 0 -3635 144 -83 c79 -46 162 -94 185 -106 22
-13 57 -33 76 -44 60 -35 223 -130 257 -150 18 -10 48 -26 65 -37 18 -10 49
-27 68 -37 19 -11 37 -22 40 -25 3 -3 36 -23 75 -45 38 -21 90 -51 115 -66 25
-15 55 -32 67 -37 12 -6 55 -30 95 -54 40 -24 181 -106 313 -182 462 -266 620
-358 665 -385 25 -14 52 -29 60 -33 8 -4 31 -17 50 -28 39 -23 276 -161 328
-191 77 -43 109 -62 137 -79 17 -10 46 -27 65 -37 19 -10 82 -46 138 -80 57
-34 105 -62 107 -62 1 0 81 -46 176 -101 96 -56 194 -113 219 -127 25 -14 57
-32 72 -41 30 -18 367 -213 432 -250 22 -13 127 -73 231 -133 105 -61 210
-122 235 -136 25 -14 200 -115 390 -225 190 -110 462 -267 605 -349 316 -183
417 -241 605 -350 80 -46 152 -87 160 -91 16 -7 37 -20 83 -51 15 -10 36 -16
45 -14 9 3 148 80 307 173 160 92 306 177 325 187 19 11 150 87 290 168 140
81 272 157 293 169 83 47 111 63 322 186 121 70 245 141 275 158 30 16 62 35
70 41 15 11 31 20 109 64 25 14 145 82 266 152 417 241 791 457 1125 650 184
106 389 225 455 263 66 38 134 77 150 87 130 74 871 502 1103 636 119 70 237
138 262 152 25 13 86 48 135 77 50 29 106 62 125 72 19 11 179 104 355 206
l320 185 3 3639 2 3639 -32 17 c-18 9 -40 21 -48 27 -8 5 -71 42 -140 81 -69
39 -141 81 -160 92 -19 11 -46 27 -60 34 -14 8 -43 25 -65 39 -22 14 -51 30
-65 37 -14 7 -68 37 -120 68 -52 31 -171 100 -265 154 -201 115 -193 111 -364
209 -73 43 -146 85 -162 94 -15 10 -79 46 -141 81 -62 35 -120 69 -128 77 -8
7 -17 12 -20 11 -3 0 -16 6 -30 15 -22 14 -291 170 -380 220 -19 11 -107 62
-195 113 -88 51 -178 103 -200 115 -45 25 -314 181 -478 277 -60 34 -111 63
-113 63 -2 0 -21 11 -42 24 -30 19 -791 460 -922 534 -46 26 -94 53 -220 127
-58 34 -112 64 -120 68 -8 4 -29 16 -47 26 -34 22 -266 156 -488 284 -77 44
-187 108 -245 142 -58 34 -112 64 -120 68 -8 4 -22 11 -30 17 -40 26 -151 90
-156 90 -3 0 -18 8 -32 18 -15 11 -52 33 -82 49 -30 17 -154 88 -275 158 -121
70 -236 136 -255 147 -19 11 -49 28 -66 39 l-30 18 -70 -40z m102 -798 c7 -8
279 -167 419 -246 59 -33 93 -52 270 -155 88 -51 174 -101 190 -110 17 -9 87
-50 155 -90 69 -40 145 -84 170 -98 25 -14 101 -58 170 -97 69 -40 141 -82
160 -93 19 -11 134 -77 255 -147 121 -70 236 -136 255 -147 19 -11 60 -35 90
-53 30 -18 75 -44 100 -57 51 -29 704 -406 825 -477 91 -54 597 -345 653 -377
20 -11 82 -47 137 -79 55 -32 114 -66 130 -75 17 -9 100 -58 185 -107 85 -49
279 -161 430 -248 321 -184 489 -282 510 -295 8 -6 24 -14 35 -20 11 -5 108
-60 215 -123 l195 -113 0 -3228 0 -3227 -50 -28 c-54 -30 -338 -195 -395 -230
-19 -11 -42 -24 -50 -28 -8 -4 -37 -20 -65 -36 -27 -16 -165 -96 -305 -177
-418 -241 -521 -300 -605 -349 -44 -26 -87 -50 -95 -54 -8 -4 -22 -11 -30 -17
-25 -16 -144 -86 -160 -94 -8 -4 -24 -12 -35 -19 -35 -21 -224 -131 -266 -154
-22 -13 -156 -90 -297 -172 -141 -82 -273 -158 -292 -169 -35 -19 -292 -168
-545 -314 -71 -41 -222 -128 -335 -193 -113 -65 -275 -159 -360 -208 -85 -50
-254 -147 -375 -217 -121 -70 -305 -176 -410 -237 -104 -60 -210 -121 -235
-135 -25 -14 -115 -66 -200 -115 -85 -50 -180 -104 -210 -122 -30 -17 -62 -36
-70 -41 -39 -24 -167 -96 -184 -103 -14 -6 -61 17 -185 89 -91 54 -269 157
-396 230 -369 212 -588 339 -615 355 -22 14 -75 44 -227 130 -89 51 -726 420
-773 448 -19 11 -44 25 -55 31 -11 5 -42 23 -70 39 -27 16 -77 45 -110 64 -98
56 -115 66 -480 277 -192 112 -541 313 -775 448 -559 323 -538 311 -590 340
-25 14 -61 35 -80 47 -19 12 -57 34 -85 49 -27 16 -151 87 -275 158 -124 72
-245 142 -270 156 -25 14 -61 35 -80 47 -19 12 -56 33 -81 47 -109 61 -435
250 -442 258 -6 6 -12 5021 -7 6341 l0 116 28 14 c15 8 92 52 172 98 80 46
165 95 190 109 25 13 81 46 125 72 44 26 161 93 260 150 99 56 208 120 242
141 34 22 64 39 67 39 2 0 71 39 153 86 81 48 164 96 183 107 31 17 166 95
212 122 9 6 41 23 70 39 29 15 60 34 69 42 8 8 18 14 22 14 3 0 88 48 189 106
101 59 215 125 253 147 39 22 103 60 143 84 40 24 75 43 78 43 3 0 30 16 60
35 30 19 56 35 58 35 3 0 233 132 366 210 45 26 270 156 298 172 18 10 102 58
185 107 84 49 226 131 317 183 91 52 210 121 265 153 55 32 120 69 145 83 25
14 57 33 72 43 14 11 28 19 31 19 3 0 54 28 114 63 59 35 259 151 443 257 184
106 430 248 545 316 202 118 240 135 261 115z"/>
<path d="M7019 9997 c60 -105 131 -318 147 -437 3 -25 10 -67 14 -95 11 -68
10 -296 -1 -375 -16 -117 -19 -134 -40 -220 -71 -304 -178 -477 -488 -789 -80
-80 -204 -200 -276 -266 -206 -190 -534 -521 -623 -630 -261 -315 -375 -585
-367 -864 2 -58 6 -117 9 -131 4 -14 8 -37 11 -52 11 -61 105 -288 118 -288 2
0 3 39 3 88 0 165 23 308 76 466 106 317 282 535 608 756 36 24 70 48 75 52 6
4 82 60 170 124 490 357 789 656 960 959 152 268 179 525 84 783 -19 54 -61
134 -83 161 -17 22 30 -4 84 -47 138 -108 247 -268 299 -436 50 -164 56 -357
16 -536 -3 -14 -8 -38 -10 -54 -3 -16 -10 -37 -16 -47 -5 -11 -7 -19 -5 -19 3
0 -10 -42 -29 -92 -107 -294 -236 -519 -505 -878 -503 -673 -759 -1140 -846
-1540 -22 -103 -27 -297 -10 -385 36 -182 123 -327 276 -459 85 -74 283 -190
408 -239 l42 -17 -30 60 c-64 127 -140 353 -155 463 -3 23 -11 67 -17 97 -12
63 -16 348 -6 430 52 403 216 719 547 1059 263 269 406 466 541 746 79 164
152 375 176 505 2 14 7 36 9 50 11 54 14 69 20 121 3 30 8 70 11 89 16 125 1
392 -32 542 -8 40 -17 80 -19 89 -13 62 -83 247 -126 332 -55 111 -173 293
-241 372 -172 201 -421 399 -663 530 -38 21 -74 41 -80 44 -5 4 -22 12 -37 19
l-28 12 29 -53z"/>
<path d="M8552 7718 c37 -105 84 -286 104 -403 8 -49 17 -101 19 -115 20 -112
27 -457 13 -595 -33 -322 -140 -626 -311 -882 -86 -128 -108 -155 -247 -293
-167 -168 -360 -305 -608 -430 -64 -33 -112 -60 -107 -60 19 0 270 49 350 69
505 125 920 361 1139 651 80 105 162 263 181 350 1 3 6 23 13 45 21 77 26 131
27 280 0 153 -4 195 -30 323 -60 291 -239 667 -492 1035 -41 59 -76 107 -77
107 -2 0 10 -37 26 -82z"/>
</g>
</svg>
